<?xml version="1.0" encoding="utf-8"?>
<!-- Svg Vector Icons : http://www.onlinewebfonts.com/icon -->
<!DOCTYPE svg PUBLIC "-//W3C//DTD SVG 1.1//EN" "http://www.w3.org/Graphics/SVG/1.1/DTD/svg11.dtd">
<svg version="1.1" xmlns="http://www.w3.org/2000/svg" xmlns:xlink="http://www.w3.org/1999/xlink" x="0px" y="0px" viewBox="0 0 256 256" enable-background="new 0 0 256 256" xml:space="preserve">
<metadata> Svg Vector Icons : http://www.onlinewebfonts.com/icon </metadata>
<g><g><g><path fill="#C08261" d="M116.7,10.3C98,12.2,79.4,18.7,64.1,28.7C55.6,34.3,49,39.7,49,41.1c0,0.4-0.6,1.8-1.3,3.1c-1.1,1.8-1.9,2.6-3.8,3.6c-1.3,0.6-2.8,1.3-3.2,1.4c-1.2,0.4-6.6,7-10.8,13.2c-10.4,15.7-16.5,31.8-19.3,51.5c-0.9,6.4-0.7,23.7,0.3,30.5c1.1,7.2,3.6,17.2,5.9,23.6c3.9,10.9,11,23.7,18.2,32.8c3.7,4.7,4.7,5.6,7.1,6.4c3.4,1.2,6.1,4,6.8,7c0.4,1.8,1.9,3.3,6.4,6.9c9,7.1,22,14.3,32.8,18.1c6.7,2.4,16.6,4.9,24,5.9c8.1,1.2,24,1.2,31.9,0c7.3-1.1,17.7-3.6,24-6c10.2-3.7,23.3-10.8,31.8-17.4c5.1-3.9,6.6-5.6,7.4-7.9c1-3,3.7-5.7,6.7-6.7c2.4-0.8,4.1-2.4,7.9-7.4c6.6-8.5,13.7-21.6,17.4-31.8c2.3-6.3,4.9-16.8,6-24c1.2-7.9,1.1-23.8,0-31.9c-1-7.4-3.5-17.3-5.9-24c-3.9-10.8-11.1-23.8-18.1-32.8c-3.6-4.5-5.1-6-6.9-6.4c-3-0.7-5.8-3.5-7-6.8c-0.8-2.4-1.7-3.4-6.4-7.1c-9.1-7.2-21.9-14.2-32.8-18.1c-6.1-2.2-16.7-4.9-23.3-5.9C138.8,10.1,122.5,9.7,116.7,10.3z M135.7,19.9c21.6,1.8,40.6,9,58,22.1c3.6,2.6,4.2,3.4,5.4,6c1.8,3.7,5.2,7.2,9,9c2.6,1.2,3.3,1.8,6,5.4c9.4,12.4,16,26.5,19.4,41c3.8,15.9,3.8,33.5,0,49.4c-3.4,14.5-10.1,28.6-19.4,41c-2.6,3.6-3.4,4.2-6,5.4c-3.7,1.8-7.2,5.2-9,9c-1.2,2.6-1.8,3.3-5.4,6c-12.4,9.3-26.5,16-41,19.4c-15.9,3.8-33.5,3.8-49.4,0c-14.5-3.4-28.5-10.1-41-19.4c-3.6-2.6-4.2-3.4-5.4-6c-1.8-3.7-5.2-7.2-9-9c-2.6-1.2-3.3-1.8-6-5.4c-9.1-12-15.6-25.4-19.1-39.3c-8-32-1.2-65.1,19-92c2.6-3.4,3.5-4.2,6-5.4c3.7-1.8,7.1-5.2,8.9-8.9c1.2-2.5,2-3.4,5.4-6c17.1-12.8,36.8-20.4,57.3-22C126.8,19.4,129.1,19.4,135.7,19.9z"/><path fill="#C08261" d="M116.2,30.1c-22.1,2.8-41.9,12.6-57.7,28.4C39.6,77.4,29.6,101.3,29.6,128c0,26.7,9.9,50.6,28.9,69.5c18.8,18.8,43,28.9,69.5,28.9c34.6,0,66.2-17.8,84.3-47.6c14.8-24.3,18.1-55,9-82.3c-12.1-35.7-43.2-61.1-80.8-66.2C135.1,29.6,121.4,29.5,116.2,30.1z M136.8,39.8c11.2,1.2,20.4,3.9,30.7,9c17,8.5,30,21.2,38.9,38c9.8,18.5,12.7,39.7,8.2,60.1c-1.8,7.9-3.6,12.9-7.4,20.6c-8.8,17.7-22,30.9-39.7,39.7c-7.7,3.8-12.7,5.6-20.6,7.4c-20.4,4.5-41.6,1.6-60.1-8.2c-16.8-8.9-29.5-21.8-38-38.9c-3.8-7.7-6.1-14.2-7.6-21.5c-2.5-12.8-2.5-24.4,0.2-36.9c1.7-7.6,3.5-12.7,7.4-20.6C57.7,70.7,71.1,57.4,89,48.6c12.5-6.2,24.4-9,38.3-9.1C130.1,39.4,134.4,39.6,136.8,39.8z"/><path fill="#C08261" d="M122.2,79.1c-7.9,0.9-17.5,4.8-23.8,9.6c-18.6,14.1-24.8,39.2-15.1,59.9c2.8,5.8,6,10.4,10.3,14.6c14.8,14.4,36.5,18.1,54.9,9.4c5.6-2.7,9.4-5.3,13.7-9.4c15-14.5,19.2-37,10.3-55.8c-7.5-15.9-22-26.3-39.5-28.3C128.6,78.5,126.8,78.5,122.2,79.1z M135.8,89.4c15.5,3.3,27.5,15.3,30.8,30.9c0.8,4,0.8,11.6,0,15.6c-2.2,10.3-8.1,19-16.9,24.9c-6.6,4.4-13.5,6.5-21.7,6.5c-16.1,0-30.8-9.9-36.5-24.7c-2-5.2-2.7-9-2.7-14.5c0-10.9,3.8-20,11.5-27.8c5.6-5.6,12.1-9.2,19.7-10.8C123.6,88.6,132.1,88.6,135.8,89.4z"/><path fill="#C08261" d="M31.8,30.4c-1.6,0.9-2.2,2-2.2,4.2c0,1.5,0.3,2.1,1.6,3.3c2.1,1.8,4.2,1.9,6.2,0.2C42,34.3,37.2,27.5,31.8,30.4z"/><path fill="#C08261" d="M219,30.3c-1.4,0.8-2.3,2.4-2.4,4.3c0,2.3,2.5,4.7,4.9,4.7c2.5,0,4.8-2.4,4.8-5.1C226.4,30.6,222.4,28.4,219,30.3z"/><path fill="#C08261" d="M32.2,217.2c-1.7,1-2.5,2.4-2.5,4.5c0,3.8,3.7,5.9,7.3,4.1c4-2.1,2.5-8.3-2-8.9C33.9,216.8,32.7,216.9,32.2,217.2z"/><path fill="#C08261" d="M219.6,217.1c-1.6,0.7-3,2.8-3,4.5c0,2.4,2.5,4.8,5.1,4.8c4.2,0,6.2-4.7,3.4-7.8C223.7,217,221.3,216.4,219.6,217.1z"/></g></g></g>
</svg>